<?xml version="1.0" encoding="utf-8"?>
<!-- Generator: Adobe Illustrator 16.0.0, SVG Export Plug-In . SVG Version: 6.00 Build 0)  -->
<!DOCTYPE svg PUBLIC "-//W3C//DTD SVG 1.1//EN" "http://www.w3.org/Graphics/SVG/1.1/DTD/svg11.dtd">
<svg version="1.1" id="Layer_1" xmlns="http://www.w3.org/2000/svg" xmlns:xlink="http://www.w3.org/1999/xlink" x="0px" y="0px"
	 width="177px" height="72px" viewBox="0 0 177 72" enable-background="new 0 0 177 72" xml:space="preserve">
<g>
	<path fill="#FFFFFF" d="M154.424,52.605H67.436c-4.545,0-8.241-3.696-8.241-8.24v-18.94c0-4.544,3.696-8.241,8.241-8.241h86.988
		c4.545,0,8.242,3.697,8.242,8.241v18.94C162.666,48.909,158.969,52.605,154.424,52.605z M67.436,19.931
		c-3.03,0-5.494,2.465-5.494,5.494v18.94c0,3.029,2.464,5.494,5.494,5.494h86.988c3.029,0,5.494-2.465,5.494-5.494v-18.94
		c0-3.029-2.465-5.494-5.494-5.494H67.436z"/>
	<path fill="#FFFFFF" d="M70.969,34.895c0,17.459-14.154,31.611-31.612,31.611c-17.459,0-31.61-14.152-31.61-31.611
		c0-17.457,14.151-31.61,31.61-31.61C56.815,3.284,70.969,17.438,70.969,34.895z M46.797,51.607c0,2.281,1.848,4.132,4.132,4.132
		c2.28,0,4.132-1.851,4.132-4.132c0-2.285-1.852-4.133-4.132-4.133C48.645,47.475,46.797,49.322,46.797,51.607z M26.133,51.607
		c0,2.281,1.849,4.132,4.133,4.132c2.279,0,4.134-1.851,4.134-4.132c0-2.285-1.854-4.133-4.134-4.133
		C27.982,47.475,26.133,49.322,26.133,51.607z M33.462,41.631l22.869-6.533c0.438-0.126,0.797-0.598,0.797-1.054V22.68H28.2v-3.307
		c0-0.455-0.375-0.826-0.825-0.826h-6.616c-0.452,0-0.823,0.371-0.823,0.826v3.307h4.131l3.949,18.507l0.185,1.949v3.407
		c0,0.452,0.371,0.826,0.825,0.826h27.278c0.454,0,0.825-0.376,0.825-0.826v-3.201H33.885C31.51,43.342,31.46,42.204,33.462,41.631z
		"/>
	<g>
		<g>
			<path fill="#FFFFFF" d="M89.401,39.547c0-0.457-0.074-0.861-0.223-1.215s-0.399-0.676-0.753-0.969s-0.819-0.561-1.396-0.805
				c-0.577-0.242-1.3-0.486-2.167-0.729c-0.836-0.236-1.588-0.492-2.257-0.77s-1.237-0.604-1.704-0.976
				c-0.468-0.372-0.829-0.802-1.084-1.288c-0.254-0.486-0.381-1.057-0.381-1.711c0-0.638,0.137-1.219,0.41-1.744
				c0.273-0.523,0.657-0.975,1.151-1.351c0.493-0.376,1.083-0.669,1.767-0.878c0.685-0.209,1.434-0.313,2.246-0.313
				c0.875,0,1.663,0.13,2.366,0.388s1.302,0.611,1.796,1.061c0.494,0.448,0.874,0.973,1.141,1.572
				c0.266,0.602,0.398,1.248,0.398,1.939h-1.414c0-0.54-0.095-1.04-0.285-1.5c-0.189-0.459-0.467-0.857-0.832-1.191
				s-0.813-0.597-1.346-0.787c-0.531-0.189-1.14-0.285-1.824-0.285c-0.684,0-1.286,0.082-1.807,0.246
				c-0.521,0.163-0.954,0.384-1.3,0.661s-0.608,0.603-0.786,0.975c-0.18,0.372-0.269,0.769-0.269,1.187
				c0,0.395,0.074,0.76,0.223,1.094c0.147,0.334,0.397,0.645,0.747,0.93s0.809,0.551,1.379,0.798s1.273,0.48,2.109,0.701
				c0.874,0.243,1.653,0.509,2.338,0.798c0.684,0.289,1.262,0.629,1.732,1.021s0.828,0.842,1.072,1.351
				c0.242,0.51,0.364,1.099,0.364,1.768c0,0.677-0.143,1.283-0.428,1.818c-0.284,0.536-0.681,0.99-1.186,1.363
				c-0.505,0.372-1.108,0.656-1.808,0.854s-1.459,0.296-2.279,0.296c-0.494,0-0.99-0.041-1.488-0.125s-0.977-0.211-1.437-0.382
				s-0.89-0.39-1.288-0.655c-0.399-0.266-0.745-0.584-1.038-0.952c-0.292-0.368-0.524-0.79-0.695-1.266s-0.257-1.005-0.257-1.591
				h1.402c0,0.699,0.145,1.291,0.434,1.773s0.661,0.872,1.117,1.168c0.456,0.297,0.969,0.512,1.539,0.645s1.141,0.199,1.711,0.199
				c0.646,0,1.232-0.074,1.762-0.223c0.527-0.147,0.98-0.358,1.355-0.633c0.377-0.273,0.666-0.602,0.867-0.985
				S89.401,40.018,89.401,39.547z"/>
			<path fill="#FFFFFF" d="M105.1,28.225h-5.689v15.403h-1.402V28.225h-5.678v-1.197H105.1V28.225z"/>
			<path fill="#FFFFFF" d="M119.727,36.229c0,1.163-0.152,2.214-0.455,3.152c-0.305,0.939-0.736,1.738-1.295,2.4
				c-0.559,0.661-1.236,1.172-2.035,1.533c-0.797,0.361-1.688,0.541-2.668,0.541c-0.973,0-1.855-0.18-2.65-0.541
				s-1.477-0.872-2.047-1.533c-0.57-0.662-1.01-1.461-1.322-2.4c-0.311-0.938-0.467-1.989-0.467-3.152v-1.779
				c0-1.162,0.156-2.215,0.467-3.157c0.312-0.942,0.748-1.747,1.311-2.411c0.562-0.666,1.242-1.179,2.035-1.539
				c0.795-0.361,1.678-0.542,2.652-0.542c0.98,0,1.869,0.181,2.668,0.542c0.797,0.36,1.479,0.873,2.045,1.539
				c0.566,0.664,1.002,1.469,1.307,2.411c0.303,0.942,0.455,1.995,0.455,3.157V36.229z M118.324,34.428
				c0-0.98-0.113-1.867-0.342-2.657s-0.559-1.461-0.992-2.013c-0.432-0.551-0.965-0.977-1.596-1.276s-1.346-0.45-2.143-0.45
				c-0.783,0-1.488,0.15-2.115,0.45s-1.16,0.726-1.596,1.276c-0.438,0.552-0.771,1.223-1.004,2.013s-0.348,1.677-0.348,2.657v1.801
				c0,0.988,0.117,1.877,0.354,2.668c0.234,0.791,0.574,1.463,1.014,2.018c0.441,0.555,0.975,0.98,1.602,1.277
				c0.629,0.297,1.332,0.445,2.115,0.445c0.807,0,1.523-0.148,2.15-0.445s1.154-0.723,1.584-1.277s0.756-1.227,0.98-2.018
				s0.336-1.68,0.336-2.668V34.428z"/>
			<path fill="#FFFFFF" d="M129.465,36.719h-4.824v6.909h-1.414V27.027h5.395c0.865,0,1.646,0.107,2.342,0.319
				c0.695,0.213,1.289,0.526,1.779,0.94s0.865,0.926,1.129,1.533c0.262,0.609,0.393,1.309,0.393,2.099
				c0,0.548-0.084,1.062-0.25,1.545c-0.168,0.482-0.404,0.917-0.707,1.306c-0.305,0.387-0.668,0.722-1.09,1.003
				s-0.887,0.498-1.396,0.649l4.15,7.058v0.148h-1.494L129.465,36.719z M124.641,35.521h4.299c0.646,0,1.215-0.099,1.705-0.297
				c0.49-0.197,0.898-0.461,1.225-0.792c0.328-0.331,0.572-0.714,0.736-1.151c0.162-0.438,0.244-0.891,0.244-1.362
				c0-0.57-0.09-1.083-0.273-1.539c-0.182-0.456-0.453-0.844-0.814-1.163s-0.805-0.564-1.328-0.735
				c-0.525-0.171-1.129-0.257-1.812-0.257h-3.98V35.521z"/>
			<path fill="#FFFFFF" d="M147.25,35.67h-7.764v6.772h8.926v1.186h-10.328V27.027h10.271v1.197h-8.869v6.26h7.764V35.67z"/>
		</g>
	</g>
</g>
</svg>
