<?xml version="1.0" encoding="utf-8"?>
<!-- Generator: Adobe Illustrator 16.0.0, SVG Export Plug-In . SVG Version: 6.00 Build 0)  -->
<!DOCTYPE svg PUBLIC "-//W3C//DTD SVG 1.1//EN" "http://www.w3.org/Graphics/SVG/1.1/DTD/svg11.dtd">
<svg version="1.1" id="Layer_1" xmlns="http://www.w3.org/2000/svg" xmlns:xlink="http://www.w3.org/1999/xlink" x="0px" y="0px"
	 width="70px" height="70px" viewBox="0 0 70 70" enable-background="new 0 0 70 70" xml:space="preserve">
<g>
	<path fill="#FFFFFF" d="M61.001,67.477H9.245c-2.704,0-4.904-2.199-4.904-4.903V51.305c0-2.704,2.2-4.903,4.904-4.903h51.756
		c2.703,0,4.903,2.199,4.903,4.903v11.269C65.904,65.277,63.704,67.477,61.001,67.477z M9.245,48.035
		c-1.803,0-3.269,1.467-3.269,3.27v11.269c0,1.803,1.466,3.27,3.269,3.27h51.756c1.8,0,3.267-1.467,3.267-3.27V51.305
		c0-1.803-1.467-3.27-3.267-3.27H9.245z"/>
	<path fill="#FFFFFF" d="M53.879,21.331c0,10.386-8.42,18.807-18.809,18.807c-10.386,0-18.806-8.421-18.806-18.807
		c0-10.387,8.42-18.808,18.806-18.808C45.459,2.523,53.879,10.944,53.879,21.331z M39.498,31.274c0,1.356,1.098,2.459,2.458,2.459
		c1.357,0,2.459-1.103,2.459-2.459c0-1.36-1.102-2.46-2.459-2.46C40.596,28.814,39.498,29.914,39.498,31.274z M27.205,31.274
		c0,1.356,1.098,2.459,2.458,2.459c1.355,0,2.459-1.103,2.459-2.459c0-1.36-1.104-2.46-2.459-2.46
		C28.303,28.814,27.205,29.914,27.205,31.274z M31.565,25.338l13.605-3.887c0.261-0.075,0.475-0.357,0.475-0.626v-6.763H28.433
		v-1.967c0-0.27-0.222-0.491-0.49-0.491h-3.937c-0.268,0-0.49,0.221-0.49,0.491v1.967h2.459l2.349,11.012l0.109,1.159v2.026
		c0,0.27,0.223,0.492,0.492,0.492h16.228c0.271,0,0.493-0.223,0.493-0.492v-1.903h-13.83C30.403,26.356,30.373,25.679,31.565,25.338
		z"/>
	<g>
		<g>
			<path fill="#FFFFFF" d="M22.312,59.707c0-0.271-0.046-0.513-0.134-0.723c-0.086-0.211-0.236-0.402-0.447-0.576
				c-0.21-0.176-0.486-0.334-0.831-0.479c-0.343-0.146-0.771-0.289-1.289-0.435c-0.498-0.141-0.945-0.293-1.343-0.459
				c-0.398-0.164-0.735-0.357-1.014-0.578c-0.277-0.223-0.493-0.477-0.646-0.768c-0.152-0.288-0.227-0.629-0.227-1.018
				c0-0.38,0.081-0.726,0.245-1.037c0.16-0.313,0.391-0.581,0.686-0.804c0.292-0.225,0.643-0.398,1.052-0.522
				c0.405-0.124,0.85-0.187,1.334-0.187c0.52,0,0.99,0.075,1.407,0.229c0.421,0.154,0.774,0.365,1.07,0.632
				c0.292,0.267,0.52,0.579,0.678,0.936c0.157,0.358,0.236,0.742,0.236,1.153h-0.84c0-0.32-0.057-0.618-0.17-0.893
				c-0.114-0.272-0.277-0.508-0.495-0.708c-0.219-0.199-0.483-0.354-0.802-0.468c-0.315-0.113-0.676-0.17-1.085-0.17
				c-0.406,0-0.765,0.048-1.073,0.146c-0.312,0.098-0.567,0.229-0.774,0.395c-0.206,0.165-0.36,0.358-0.468,0.579
				c-0.106,0.222-0.159,0.457-0.159,0.705c0,0.235,0.043,0.452,0.132,0.651s0.236,0.385,0.445,0.553
				c0.206,0.17,0.481,0.329,0.819,0.476c0.341,0.146,0.758,0.285,1.255,0.416c0.521,0.146,0.983,0.305,1.392,0.476
				c0.406,0.172,0.749,0.374,1.031,0.607c0.279,0.232,0.493,0.501,0.638,0.804c0.143,0.303,0.216,0.654,0.216,1.052
				c0,0.402-0.084,0.762-0.254,1.082c-0.171,0.318-0.405,0.589-0.706,0.812c-0.3,0.219-0.659,0.39-1.074,0.507
				c-0.418,0.117-0.869,0.177-1.357,0.177c-0.293,0-0.588-0.025-0.885-0.074c-0.296-0.05-0.581-0.127-0.854-0.228
				c-0.276-0.102-0.529-0.232-0.768-0.39c-0.236-0.158-0.443-0.347-0.617-0.567c-0.176-0.218-0.312-0.47-0.414-0.753
				c-0.102-0.283-0.152-0.598-0.152-0.944h0.833c0,0.415,0.086,0.767,0.259,1.053c0.17,0.288,0.393,0.52,0.665,0.696
				c0.271,0.175,0.577,0.305,0.916,0.383c0.338,0.078,0.679,0.119,1.017,0.119c0.384,0,0.732-0.045,1.049-0.132
				c0.313-0.089,0.583-0.216,0.806-0.376c0.225-0.164,0.397-0.358,0.516-0.589C22.251,60.242,22.312,59.986,22.312,59.707z"/>
			<path fill="#FFFFFF" d="M31.651,52.972h-3.385v9.164h-0.833v-9.164h-3.377v-0.714h7.595V52.972z"/>
			<path fill="#FFFFFF" d="M40.355,57.732c0,0.691-0.091,1.317-0.271,1.876c-0.181,0.56-0.438,1.034-0.771,1.428
				c-0.331,0.393-0.735,0.697-1.209,0.912c-0.475,0.214-1.004,0.322-1.587,0.322c-0.579,0-1.106-0.108-1.579-0.322
				c-0.472-0.215-0.878-0.52-1.217-0.912c-0.34-0.394-0.601-0.868-0.787-1.428c-0.185-0.559-0.277-1.185-0.277-1.876v-1.059
				c0-0.691,0.093-1.317,0.277-1.878c0.187-0.561,0.444-1.04,0.781-1.436c0.333-0.396,0.737-0.701,1.21-0.916
				c0.472-0.214,0.998-0.321,1.577-0.321c0.584,0,1.112,0.107,1.588,0.321c0.474,0.215,0.88,0.521,1.218,0.916
				c0.337,0.396,0.596,0.875,0.776,1.436c0.18,0.561,0.271,1.187,0.271,1.878V57.732z M39.521,56.66c0-0.583-0.067-1.11-0.203-1.58
				c-0.136-0.471-0.332-0.87-0.591-1.196c-0.258-0.328-0.574-0.581-0.949-0.762c-0.377-0.178-0.8-0.267-1.275-0.267
				c-0.465,0-0.885,0.089-1.258,0.267c-0.375,0.181-0.689,0.434-0.95,0.762c-0.259,0.326-0.459,0.726-0.598,1.196
				c-0.136,0.47-0.206,0.997-0.206,1.58v1.072c0,0.589,0.07,1.116,0.211,1.588c0.141,0.471,0.34,0.87,0.604,1.199
				c0.262,0.331,0.579,0.584,0.953,0.761c0.373,0.177,0.792,0.265,1.259,0.265c0.479,0,0.905-0.088,1.277-0.265
				c0.374-0.177,0.688-0.43,0.944-0.761c0.255-0.329,0.449-0.729,0.581-1.199c0.134-0.472,0.201-0.999,0.201-1.588V56.66z"/>
			<path fill="#FFFFFF" d="M46.148,58.023h-2.869v4.112h-0.84v-9.878h3.208c0.516,0,0.98,0.064,1.394,0.19
				c0.414,0.127,0.768,0.313,1.058,0.561c0.293,0.245,0.516,0.55,0.673,0.911c0.156,0.362,0.233,0.779,0.233,1.248
				c0,0.326-0.05,0.633-0.15,0.92c-0.099,0.287-0.237,0.546-0.419,0.775c-0.183,0.232-0.397,0.43-0.647,0.598
				c-0.252,0.168-0.529,0.297-0.83,0.387l2.467,4.2v0.088h-0.888L46.148,58.023z M43.279,57.311h2.559
				c0.384,0,0.722-0.058,1.013-0.176c0.292-0.117,0.536-0.274,0.729-0.47c0.195-0.198,0.341-0.425,0.438-0.686
				s0.146-0.531,0.146-0.812c0-0.338-0.053-0.645-0.161-0.914c-0.109-0.272-0.271-0.504-0.486-0.693
				c-0.215-0.19-0.479-0.336-0.79-0.438c-0.311-0.102-0.671-0.15-1.078-0.15h-2.368V57.311z"/>
			<path fill="#FFFFFF" d="M56.73,57.4h-4.617v4.028h5.31v0.707h-6.146v-9.878h6.111v0.714h-5.275v3.722h4.617V57.4z"/>
		</g>
	</g>
</g>
</svg>
