<?xml version="1.0" encoding="utf-8"?>
<!-- Generator: Adobe Illustrator 16.0.0, SVG Export Plug-In . SVG Version: 6.00 Build 0)  -->
<!DOCTYPE svg PUBLIC "-//W3C//DTD SVG 1.1//EN" "http://www.w3.org/Graphics/SVG/1.1/DTD/svg11.dtd">
<svg version="1.1" id="Layer_1" xmlns="http://www.w3.org/2000/svg" xmlns:xlink="http://www.w3.org/1999/xlink" x="0px" y="0px"
	 width="70px" height="70px" viewBox="0 0 70 70" enable-background="new 0 0 70 70" xml:space="preserve">
<g>
	<path fill="#FFFFFF" d="M63.993,44.908H6.288c-0.364,0-0.715,0.041-1.054,0.112c-2.202,0.482-3.85,2.445-3.85,4.79v11.269
		c0,2.339,1.648,4.307,3.85,4.789c0.338,0.071,0.69,0.113,1.054,0.113h57.706c2.701,0,4.901-2.201,4.901-4.902V49.811
		C68.894,47.103,66.694,44.908,63.993,44.908z M67.26,61.079c0,1.804-1.471,3.266-3.267,3.266H6.288c-0.048,0-0.089,0-0.136-0.005
		c-1.744-0.071-3.135-1.505-3.135-3.261V49.811c0-1.755,1.392-3.195,3.135-3.267c0.047-0.006,0.088-0.006,0.136-0.006h57.706
		c1.795,0,3.267,1.47,3.267,3.272V61.079z"/>
	<g>
		<g>
			<path fill="#FFFFFF" d="M16.739,59.418l0.055,0.21l0.061-0.21l3.108-8.656h0.915L17.2,60.639h-0.799l-3.677-9.877h0.91
				L16.739,59.418z"/>
			<path fill="#FFFFFF" d="M23.348,60.639h-0.835v-9.877h0.835V60.639z"/>
			<path fill="#FFFFFF" d="M26.026,60.639v-9.877h2.761c0.615,0,1.183,0.107,1.7,0.32c0.518,0.211,0.963,0.515,1.335,0.907
				c0.374,0.394,0.665,0.867,0.872,1.418c0.208,0.552,0.313,1.167,0.313,1.845v0.903c0,0.679-0.104,1.294-0.313,1.845
				c-0.207,0.552-0.5,1.023-0.875,1.415c-0.377,0.392-0.826,0.692-1.351,0.904c-0.524,0.213-1.104,0.319-1.737,0.319H26.026z
				 M26.862,51.475v8.459h1.871c0.529,0,1.006-0.091,1.433-0.275c0.424-0.184,0.786-0.44,1.085-0.773
				c0.297-0.332,0.526-0.729,0.688-1.193s0.241-0.975,0.241-1.536v-0.924c0-0.569-0.082-1.085-0.243-1.55
				c-0.164-0.463-0.393-0.857-0.69-1.184c-0.295-0.324-0.651-0.576-1.067-0.756c-0.418-0.18-0.881-0.268-1.392-0.268H26.862z"/>
			<path fill="#FFFFFF" d="M40.576,55.903h-4.617v4.03h5.31v0.705h-6.146v-9.877h6.111v0.713h-5.275v3.723h4.617V55.903z"/>
			<path fill="#FFFFFF" d="M50.324,56.236c0,0.691-0.091,1.318-0.27,1.876c-0.182,0.559-0.438,1.034-0.772,1.428
				c-0.331,0.394-0.735,0.697-1.209,0.911c-0.475,0.216-1.003,0.323-1.587,0.323c-0.579,0-1.105-0.107-1.578-0.323
				c-0.473-0.214-0.878-0.518-1.217-0.911c-0.34-0.394-0.601-0.869-0.788-1.428c-0.184-0.558-0.276-1.185-0.276-1.876v-1.058
				c0-0.693,0.093-1.318,0.276-1.879c0.187-0.561,0.445-1.04,0.781-1.435c0.334-0.396,0.738-0.701,1.21-0.918
				c0.472-0.213,0.999-0.32,1.578-0.32c0.583,0,1.112,0.107,1.586,0.32c0.475,0.217,0.881,0.521,1.219,0.918
				c0.335,0.395,0.595,0.874,0.776,1.435c0.179,0.561,0.27,1.186,0.27,1.879V56.236z M49.491,55.165c0-0.584-0.068-1.11-0.205-1.581
				s-0.332-0.869-0.59-1.196c-0.258-0.329-0.574-0.581-0.949-0.761c-0.377-0.178-0.801-0.269-1.275-0.269
				c-0.466,0-0.886,0.091-1.258,0.269c-0.374,0.18-0.69,0.432-0.951,0.761c-0.259,0.327-0.458,0.726-0.597,1.196
				c-0.136,0.471-0.207,0.997-0.207,1.581v1.071c0,0.588,0.07,1.117,0.211,1.588c0.141,0.47,0.341,0.869,0.604,1.2
				c0.261,0.33,0.579,0.583,0.954,0.759c0.373,0.178,0.792,0.266,1.258,0.266c0.479,0,0.906-0.088,1.278-0.266
				c0.375-0.176,0.688-0.429,0.944-0.759c0.254-0.331,0.45-0.73,0.582-1.2c0.134-0.471,0.202-1,0.202-1.588V55.165z"/>
			<path fill="#FFFFFF" d="M58.018,58.21c0-0.271-0.046-0.512-0.134-0.722c-0.086-0.211-0.236-0.403-0.447-0.577
				c-0.209-0.175-0.486-0.333-0.832-0.479c-0.343-0.144-0.771-0.289-1.289-0.434c-0.498-0.141-0.944-0.293-1.341-0.459
				c-0.4-0.165-0.736-0.357-1.015-0.579c-0.277-0.222-0.493-0.477-0.645-0.767c-0.152-0.289-0.227-0.63-0.227-1.017
				c0-0.382,0.082-0.728,0.245-1.038c0.161-0.312,0.39-0.581,0.686-0.804c0.293-0.225,0.643-0.398,1.051-0.523
				c0.406-0.124,0.851-0.186,1.334-0.186c0.52,0,0.99,0.076,1.408,0.23c0.42,0.154,0.774,0.363,1.069,0.631
				c0.292,0.268,0.52,0.579,0.679,0.936c0.156,0.358,0.236,0.742,0.236,1.152h-0.84c0-0.32-0.057-0.617-0.17-0.892
				c-0.114-0.272-0.277-0.509-0.495-0.708c-0.218-0.199-0.484-0.354-0.801-0.468c-0.316-0.113-0.677-0.171-1.085-0.171
				c-0.406,0-0.765,0.049-1.074,0.147c-0.311,0.096-0.567,0.228-0.774,0.394c-0.207,0.164-0.361,0.358-0.468,0.579
				c-0.106,0.223-0.159,0.456-0.159,0.706c0,0.234,0.043,0.451,0.132,0.651c0.088,0.198,0.236,0.384,0.445,0.551
				c0.207,0.171,0.481,0.33,0.819,0.476c0.341,0.147,0.758,0.287,1.255,0.418c0.52,0.145,0.983,0.303,1.391,0.475
				c0.407,0.171,0.75,0.373,1.031,0.607c0.279,0.233,0.493,0.5,0.638,0.804c0.143,0.304,0.215,0.653,0.215,1.051
				c0,0.403-0.084,0.763-0.254,1.083c-0.17,0.317-0.404,0.588-0.706,0.811c-0.3,0.22-0.659,0.391-1.074,0.509
				c-0.417,0.117-0.87,0.176-1.357,0.176c-0.293,0-0.588-0.024-0.886-0.074c-0.295-0.05-0.581-0.127-0.853-0.228
				c-0.275-0.101-0.529-0.231-0.768-0.39c-0.236-0.159-0.443-0.348-0.617-0.567c-0.175-0.218-0.312-0.47-0.414-0.752
				c-0.102-0.283-0.152-0.599-0.152-0.946h0.833c0,0.416,0.086,0.768,0.259,1.054c0.17,0.288,0.393,0.52,0.665,0.697
				c0.271,0.174,0.577,0.303,0.915,0.382c0.338,0.079,0.679,0.119,1.017,0.119c0.384,0,0.733-0.046,1.049-0.133
				c0.313-0.087,0.583-0.214,0.806-0.376c0.225-0.163,0.397-0.358,0.515-0.588C57.957,58.746,58.018,58.491,58.018,58.21z"/>
		</g>
	</g>
	<path fill="#FFFFFF" d="M3.016,61.079V49.811c0-1.755,1.392-3.195,3.135-3.267c-0.279-0.523-0.59-1.028-0.917-1.523
		c-2.202,0.482-3.85,2.445-3.85,4.79v11.269c0,2.339,1.648,4.307,3.85,4.789c0.333-0.494,0.638-1.006,0.917-1.528
		C4.408,64.269,3.016,62.835,3.016,61.079z"/>
	<path fill="#FFFFFF" d="M53.827,17.809c-0.004-0.072-0.016-0.137-0.025-0.207c-0.009-0.073-0.015-0.145-0.027-0.218
		c-0.011-0.08-0.018-0.163-0.029-0.241c-0.055-0.407-0.12-0.801-0.216-1.18c-0.022-0.115-0.062-0.224-0.089-0.337
		c-0.068-0.299-0.145-0.594-0.229-0.887c-0.039-0.133-0.063-0.273-0.103-0.404v-0.014c-0.095-0.285-0.19-0.583-0.299-0.869
		c-0.018-0.048-0.039-0.096-0.057-0.145c-0.08-0.209-0.161-0.414-0.248-0.62c-0.012-0.03-0.022-0.06-0.037-0.091
		c-0.052-0.13-0.123-0.248-0.179-0.376c-0.188-0.423-0.363-0.854-0.583-1.26c-0.007,0-0.011,0.002-0.018,0.002
		c-0.002-0.002-0.002-0.005-0.004-0.009c-0.287-0.529-0.597-1.031-0.925-1.519c0.014,0,0.014,0,0.028,0
		C47.423,4.375,41.67,1.05,35.144,1.05c-9.446,0-17.249,6.947-18.59,15.998c-0.15,0.923-0.218,1.859-0.218,2.81
		c0,0.976,0.068,1.927,0.218,2.863c1.342,9.064,9.144,15.998,18.59,15.998c8.747,0,16.089-5.987,18.182-14.087
		c0.015-0.062,0.034-0.123,0.049-0.184c0.18-0.726,0.332-1.46,0.425-2.216c0.055-0.38,0.082-0.774,0.109-1.167
		c0.027-0.38,0.041-0.774,0.041-1.153v-0.054C53.95,19.166,53.909,18.473,53.827,17.809z M27.952,29.179v-18.59
		c0-0.882,0.962-1.424,1.723-0.991l10.977,6.351l1.668,0.95l3.448,1.994c0.759,0.448,0.759,1.533,0,1.981l-16.093,9.296
		C28.914,30.604,27.952,30.062,27.952,29.179z"/>
</g>
</svg>
