<?xml version="1.0" encoding="utf-8"?>
<!-- Generator: Adobe Illustrator 16.0.0, SVG Export Plug-In . SVG Version: 6.00 Build 0)  -->
<!DOCTYPE svg PUBLIC "-//W3C//DTD SVG 1.1//EN" "http://www.w3.org/Graphics/SVG/1.1/DTD/svg11.dtd">
<svg version="1.1" id="Layer_1" xmlns="http://www.w3.org/2000/svg" xmlns:xlink="http://www.w3.org/1999/xlink" x="0px" y="0px"
	 width="177px" height="72px" viewBox="0 0 177 72" enable-background="new 0 0 177 72" xml:space="preserve">
<g>
	<path fill="#FFFFFF" d="M164.427,18.289h-96.99c-0.61,0-1.2,0.07-1.771,0.19c-3.699,0.81-6.47,4.11-6.47,8.05v18.939
		c0,3.931,2.771,7.24,6.47,8.051c0.57,0.12,1.16,0.189,1.771,0.189h96.99c4.54,0,8.239-3.699,8.239-8.24V26.529
		C172.666,21.979,168.967,18.289,164.427,18.289z M169.916,45.469c0,3.031-2.47,5.49-5.489,5.49h-96.99c-0.08,0-0.149,0-0.229-0.01
		c-2.931-0.119-5.271-2.529-5.271-5.48V26.529c0-2.949,2.34-5.369,5.271-5.49c0.08-0.01,0.149-0.01,0.229-0.01h96.99
		c3.02,0,5.489,2.471,5.489,5.5V45.469z"/>
	<g>
		<g>
			<path fill="#FFFFFF" d="M85.009,42.678l0.091,0.354l0.104-0.354l5.221-14.549h1.539l-6.179,16.601h-1.346L78.26,28.129h1.527
				L85.009,42.678z"/>
			<path fill="#FFFFFF" d="M96.113,44.729h-1.402V28.129h1.402V44.729z"/>
			<path fill="#FFFFFF" d="M100.617,44.729V28.129h4.641c1.033,0,1.985,0.18,2.855,0.536c0.871,0.357,1.619,0.866,2.246,1.528
				c0.627,0.66,1.115,1.455,1.465,2.383c0.35,0.927,0.525,1.961,0.525,3.101v1.517c0,1.141-0.176,2.174-0.525,3.102
				c-0.35,0.927-0.84,1.719-1.471,2.377c-0.631,0.657-1.387,1.164-2.269,1.521s-1.854,0.536-2.919,0.536H100.617z M102.02,29.326
				v14.218h3.146c0.89,0,1.691-0.154,2.406-0.462s1.322-0.741,1.824-1.3s0.887-1.228,1.157-2.007c0.27-0.779,0.405-1.64,0.405-2.582
				v-1.551c0-0.957-0.138-1.826-0.411-2.605s-0.659-1.441-1.157-1.989s-1.097-0.971-1.796-1.271
				c-0.699-0.301-1.478-0.451-2.337-0.451H102.02z"/>
			<path fill="#FFFFFF" d="M125.073,36.771h-7.765v6.772h8.928v1.186h-10.33V28.129h10.273v1.197h-8.871v6.26h7.765V36.771z"/>
			<path fill="#FFFFFF" d="M141.457,37.33c0,1.163-0.152,2.214-0.456,3.152c-0.304,0.939-0.735,1.738-1.294,2.4
				c-0.559,0.661-1.237,1.172-2.035,1.533c-0.799,0.361-1.688,0.541-2.668,0.541c-0.973,0-1.857-0.18-2.65-0.541
				c-0.795-0.361-1.477-0.872-2.047-1.533c-0.57-0.662-1.012-1.461-1.322-2.4c-0.312-0.938-0.468-1.989-0.468-3.152v-1.779
				c0-1.162,0.155-2.215,0.468-3.157c0.311-0.942,0.748-1.747,1.311-2.411c0.562-0.666,1.24-1.179,2.035-1.539
				c0.795-0.361,1.678-0.542,2.65-0.542c0.98,0,1.87,0.181,2.668,0.542c0.799,0.36,1.48,0.873,2.047,1.539
				c0.566,0.664,1.002,1.469,1.306,2.411s0.456,1.995,0.456,3.157V37.33z M140.055,35.529c0-0.98-0.114-1.867-0.342-2.657
				c-0.229-0.79-0.559-1.461-0.992-2.013c-0.434-0.551-0.965-0.977-1.596-1.276s-1.346-0.45-2.145-0.45
				c-0.782,0-1.487,0.15-2.114,0.45c-0.628,0.3-1.159,0.726-1.597,1.276c-0.438,0.552-0.771,1.223-1.003,2.013
				s-0.348,1.677-0.348,2.657v1.801c0,0.988,0.118,1.877,0.354,2.668s0.573,1.463,1.015,2.018c0.44,0.555,0.975,0.98,1.602,1.277
				s1.332,0.445,2.115,0.445c0.806,0,1.521-0.148,2.148-0.445s1.156-0.723,1.586-1.277c0.429-0.555,0.756-1.227,0.98-2.018
				c0.224-0.791,0.336-1.68,0.336-2.668V35.529z"/>
			<path fill="#FFFFFF" d="M154.386,40.648c0-0.457-0.074-0.861-0.223-1.215c-0.147-0.354-0.398-0.676-0.752-0.969
				s-0.818-0.561-1.396-0.805c-0.578-0.242-1.3-0.486-2.166-0.729c-0.837-0.236-1.589-0.492-2.258-0.77s-1.237-0.604-1.704-0.976
				c-0.468-0.372-0.829-0.802-1.084-1.288c-0.254-0.486-0.381-1.057-0.381-1.711c0-0.638,0.137-1.219,0.41-1.744
				c0.273-0.523,0.657-0.975,1.151-1.351c0.493-0.376,1.083-0.669,1.767-0.878c0.685-0.209,1.434-0.313,2.247-0.313
				c0.873,0,1.662,0.13,2.365,0.388s1.302,0.611,1.796,1.061c0.493,0.448,0.874,0.973,1.14,1.572
				c0.266,0.602,0.399,1.248,0.399,1.939h-1.414c0-0.54-0.095-1.04-0.284-1.5c-0.191-0.459-0.469-0.857-0.833-1.191
				s-0.813-0.597-1.345-0.787c-0.533-0.189-1.141-0.285-1.824-0.285c-0.685,0-1.287,0.082-1.808,0.246
				c-0.521,0.163-0.954,0.384-1.3,0.661s-0.608,0.603-0.786,0.975c-0.18,0.372-0.269,0.769-0.269,1.187
				c0,0.395,0.074,0.76,0.223,1.094c0.147,0.334,0.397,0.645,0.747,0.93s0.809,0.551,1.379,0.798s1.273,0.48,2.109,0.701
				c0.874,0.243,1.653,0.509,2.337,0.798c0.685,0.289,1.262,0.629,1.733,1.021s0.828,0.842,1.071,1.351
				c0.244,0.51,0.365,1.099,0.365,1.768c0,0.677-0.143,1.283-0.428,1.818c-0.285,0.536-0.68,0.99-1.186,1.363
				c-0.506,0.372-1.107,0.656-1.807,0.854s-1.46,0.296-2.281,0.296c-0.493,0-0.989-0.041-1.487-0.125s-0.977-0.211-1.437-0.382
				s-0.89-0.39-1.288-0.655c-0.399-0.266-0.745-0.584-1.038-0.952c-0.292-0.368-0.524-0.79-0.695-1.266s-0.257-1.005-0.257-1.591
				h1.402c0,0.699,0.145,1.291,0.434,1.773s0.661,0.872,1.117,1.168c0.456,0.297,0.969,0.512,1.539,0.645s1.141,0.199,1.71,0.199
				c0.646,0,1.233-0.074,1.762-0.223c0.528-0.147,0.98-0.358,1.357-0.633c0.376-0.273,0.664-0.602,0.866-0.985
				C154.285,41.547,154.386,41.119,154.386,40.648z"/>
		</g>
	</g>
	<path fill="#FFFFFF" d="M61.937,45.469V26.529c0-2.949,2.34-5.369,5.271-5.49c-0.471-0.879-0.99-1.729-1.541-2.56
		c-3.699,0.81-6.47,4.11-6.47,8.05v18.939c0,3.931,2.771,7.24,6.47,8.051c0.561-0.83,1.07-1.689,1.541-2.57
		C64.276,50.83,61.937,48.42,61.937,45.469z"/>
	<path fill="#FFFFFF" d="M70.967,36c0,5.41-1.36,10.5-3.76,14.949c-2.931-0.119-5.271-2.529-5.271-5.48V26.529
		c0-2.949,2.34-5.369,5.271-5.49C69.606,25.489,70.967,30.59,70.967,36z"/>
	<path fill="#FFFFFF" d="M59.196,45.469V26.529c0-3.939,2.771-7.24,6.47-8.05c-5.66-8.5-15.33-14.09-26.31-14.09
		c-17.46,0-31.61,14.149-31.61,31.61c0,17.459,14.15,31.609,31.61,31.609c10.979,0,20.649-5.59,26.31-14.09
		C61.967,52.709,59.196,49.399,59.196,45.469z M57.227,37.699l-27.061,15.62c-1.279,0.74-2.879-0.18-2.879-1.659V20.42
		c0-1.48,1.6-2.4,2.879-1.66l18.471,10.66l2.789,1.609l5.801,3.35C58.496,35.119,58.496,36.959,57.227,37.699z"/>
</g>
</svg>
